# xmcd
#
# Track frame offsets:
#	150
#	18607
#	34090
#	48861
#	66015
#	80173
#	97083
#	112053
#	126982
#	143928
#	160181
#	176745
#	190793
#	207779
#	225033
#	241718
#	263928
#	280532
#	298039
#	314027
#	329347
#
# Disc length: 4603 seconds
#
# Revision: 3
# Processed by: cddbd v1.5.2PL0 Copyright (c) Steve Scherf et al.
# Submitted via: EasyCDDAExtractor 2010.6.0.0
#
DISCID=3211f915
DTITLE=Various Artist - Nouveau Disco
DYEAR=2001
DGENRE=Dance
TTITLE0=DJ Monty - Saturday Night Fever Discomix
TTITLE1=Roger Sanchez - Another Chance
TTITLE2=Black Legend - You See The Trouble With Me
TTITLE3=Soul Providers - Rise
TTITLE4=Gusto - Disco's Revenge
TTITLE5=The 3 Jays - Feeling It Too
TTITLE6=Grace Jones vs. Funkstar Deluxe - Pull Up To The Bumper
TTITLE7=Soulsearcher - I Can't Get Enough
TTITLE8=Junior Jack - My Feeling
TTITLE9=Supercar - Tonite
TTITLE10=Earth, Wind and Fire - September '99 (Phats and Small Remix)
TTITLE11=Eclipse - Makes Me Love You
TTITLE12=Madison Avenue - Don't Call Me Baby
TTITLE13=Bastian - You've Got My Love
TTITLE14=Pound Boys - K Pasa
TTITLE15=Superfunk feat. Ron Caroll - Lucky Star
TTITLE16=Twin - A New Day
TTITLE17=The Nightgroovers - It's A Love Thang
TTITLE18=DJ Rene - Music All Over The World
TTITLE19=Future Groove Express - Thru Tha Roof
TTITLE20=Spiller - Cry Baby
EXTD=
EXTT0=
EXTT1=
EXTT2=
EXTT3=
EXTT4=
EXTT5=
EXTT6=
EXTT7=
EXTT8=
EXTT9=
EXTT10=
EXTT11=
EXTT12=
EXTT13=
EXTT14=
EXTT15=
EXTT16=
EXTT17=
EXTT18=
EXTT19=
EXTT20=
PLAYORDER=
